<?xml version="1.0" encoding="UTF-8" standalone="no"?>
<!DOCTYPE svg PUBLIC "-//W3C//DTD SVG 1.1//EN"
 "http://www.w3.org/Graphics/SVG/1.1/DTD/svg11.dtd">
<!-- Generated by graphviz version 2.42.4 (0)
 -->
<!-- Title: G Pages: 1 -->
<svg width="917pt" height="218pt"
 viewBox="0.00 0.00 916.60 217.60" xmlns="http://www.w3.org/2000/svg" xmlns:xlink="http://www.w3.org/1999/xlink">
<g id="graph0" class="graph" transform="scale(1 1) rotate(0) translate(28.8 188.8)">
<title>G</title>
<polygon fill="white" stroke="transparent" points="-28.8,28.8 -28.8,-188.8 887.8,-188.8 887.8,28.8 -28.8,28.8"/>
<!-- platform -->
<g id="node1" class="node">
<title>platform</title>
<path fill="#e9f0ff" stroke="#1f3c88" d="M525.5,-160C525.5,-160 329.5,-160 329.5,-160 323.5,-160 317.5,-154 317.5,-148 317.5,-148 317.5,-136 317.5,-136 317.5,-130 323.5,-124 329.5,-124 329.5,-124 525.5,-124 525.5,-124 531.5,-124 537.5,-130 537.5,-136 537.5,-136 537.5,-148 537.5,-148 537.5,-154 531.5,-160 525.5,-160"/>
<text text-anchor="middle" x="427.5" y="-145.2" font-family="Helvetica,sans-Serif" font-size="11.00">Plataforma Corporativa</text>
<text text-anchor="middle" x="427.5" y="-133.2" font-family="Helvetica,sans-Serif" font-size="11.00">Core unico + experience multimarca</text>
</g>
<!-- exp -->
<g id="node2" class="node">
<title>exp</title>
<path fill="#f5f8ff" stroke="#1f3c88" d="M115,-72C115,-72 12,-72 12,-72 6,-72 0,-66 0,-60 0,-60 0,-24 0,-24 0,-18 6,-12 12,-12 12,-12 115,-12 115,-12 121,-12 127,-18 127,-24 127,-24 127,-60 127,-60 127,-66 121,-72 115,-72"/>
<text text-anchor="middle" x="63.5" y="-57.2" font-family="Helvetica,sans-Serif" font-size="11.00">Experience Layer</text>
<text text-anchor="middle" x="63.5" y="-45.2" font-family="Helvetica,sans-Serif" font-size="11.00">Apps por marca</text>
<text text-anchor="middle" x="63.5" y="-33.2" font-family="Helvetica,sans-Serif" font-size="11.00">Kaptur</text>
<text text-anchor="middle" x="63.5" y="-21.2" font-family="Helvetica,sans-Serif" font-size="11.00">Clientes white&#45;label</text>
</g>
<!-- platform&#45;&gt;exp -->
<g id="edge1" class="edge">
<title>platform&#45;&gt;exp</title>
<path fill="none" stroke="#415a77" d="M317.38,-127.13C262.82,-118.28 196.58,-104.52 139.5,-84 133.01,-81.67 126.4,-78.85 119.92,-75.8"/>
<polygon fill="#415a77" stroke="#415a77" points="120.81,-73.11 112.39,-72.12 118.35,-78.14 120.81,-73.11"/>
</g>
<!-- domain -->
<g id="node3" class="node">
<title>domain</title>
<path fill="#f5f8ff" stroke="#1f3c88" d="M327,-66C327,-66 164,-66 164,-66 158,-66 152,-60 152,-54 152,-54 152,-30 152,-30 152,-24 158,-18 164,-18 164,-18 327,-18 327,-18 333,-18 339,-24 339,-30 339,-30 339,-54 339,-54 339,-60 333,-66 327,-66"/>
<text text-anchor="middle" x="245.5" y="-51.2" font-family="Helvetica,sans-Serif" font-size="11.00">Domain Packs</text>
<text text-anchor="middle" x="245.5" y="-39.2" font-family="Helvetica,sans-Serif" font-size="11.00">Inspection (ativo)</text>
<text text-anchor="middle" x="245.5" y="-27.2" font-family="Helvetica,sans-Serif" font-size="11.00">Outros dominios sob demanda</text>
</g>
<!-- platform&#45;&gt;domain -->
<g id="edge2" class="edge">
<title>platform&#45;&gt;domain</title>
<path fill="none" stroke="#415a77" d="M395.8,-123.93C368.15,-109.04 327.57,-87.19 295.54,-69.94"/>
<polygon fill="#415a77" stroke="#415a77" points="296.8,-67.44 288.43,-66.12 294.15,-72.37 296.8,-67.44"/>
</g>
<!-- foundations -->
<g id="node4" class="node">
<title>foundations</title>
<path fill="#f5f8ff" stroke="#1f3c88" d="M479,-84C479,-84 376,-84 376,-84 370,-84 364,-78 364,-72 364,-72 364,-12 364,-12 364,-6 370,0 376,0 376,0 479,0 479,0 485,0 491,-6 491,-12 491,-12 491,-72 491,-72 491,-78 485,-84 479,-84"/>
<text text-anchor="middle" x="427.5" y="-69.2" font-family="Helvetica,sans-Serif" font-size="11.00">Shared Foundations</text>
<text text-anchor="middle" x="427.5" y="-57.2" font-family="Helvetica,sans-Serif" font-size="11.00">Dispatch</text>
<text text-anchor="middle" x="427.5" y="-45.2" font-family="Helvetica,sans-Serif" font-size="11.00">Swipe seguro</text>
<text text-anchor="middle" x="427.5" y="-33.2" font-family="Helvetica,sans-Serif" font-size="11.00">Geofence</text>
<text text-anchor="middle" x="427.5" y="-21.2" font-family="Helvetica,sans-Serif" font-size="11.00">Retomada</text>
<text text-anchor="middle" x="427.5" y="-9.2" font-family="Helvetica,sans-Serif" font-size="11.00">Auditoria</text>
</g>
<!-- platform&#45;&gt;foundations -->
<g id="edge3" class="edge">
<title>platform&#45;&gt;foundations</title>
<path fill="none" stroke="#415a77" d="M427.5,-123.93C427.5,-115.1 427.5,-103.83 427.5,-92.52"/>
<polygon fill="#415a77" stroke="#415a77" points="430.3,-92.31 427.5,-84.31 424.7,-92.31 430.3,-92.31"/>
</g>
<!-- core -->
<g id="node5" class="node">
<title>core</title>
<path fill="#f5f8ff" stroke="#1f3c88" d="M612.5,-84C612.5,-84 528.5,-84 528.5,-84 522.5,-84 516.5,-78 516.5,-72 516.5,-72 516.5,-12 516.5,-12 516.5,-6 522.5,0 528.5,0 528.5,0 612.5,0 612.5,0 618.5,0 624.5,-6 624.5,-12 624.5,-12 624.5,-72 624.5,-72 624.5,-78 618.5,-84 612.5,-84"/>
<text text-anchor="middle" x="570.5" y="-69.2" font-family="Helvetica,sans-Serif" font-size="11.00">Platform Core</text>
<text text-anchor="middle" x="570.5" y="-57.2" font-family="Helvetica,sans-Serif" font-size="11.00">Auth</text>
<text text-anchor="middle" x="570.5" y="-45.2" font-family="Helvetica,sans-Serif" font-size="11.00">Sync</text>
<text text-anchor="middle" x="570.5" y="-33.2" font-family="Helvetica,sans-Serif" font-size="11.00">Storage</text>
<text text-anchor="middle" x="570.5" y="-21.2" font-family="Helvetica,sans-Serif" font-size="11.00">Observabilidade</text>
<text text-anchor="middle" x="570.5" y="-9.2" font-family="Helvetica,sans-Serif" font-size="11.00">Config base</text>
</g>
<!-- platform&#45;&gt;core -->
<g id="edge4" class="edge">
<title>platform&#45;&gt;core</title>
<path fill="none" stroke="#415a77" d="M452.41,-123.93C468.23,-113.09 489.43,-98.56 509.5,-84.8"/>
<polygon fill="#415a77" stroke="#415a77" points="511.24,-87 516.26,-80.17 508.08,-82.38 511.24,-87"/>
</g>
<!-- data -->
<g id="node6" class="node">
<title>data</title>
<path fill="#f5f8ff" stroke="#1f3c88" d="M847,-78C847,-78 662,-78 662,-78 656,-78 650,-72 650,-66 650,-66 650,-18 650,-18 650,-12 656,-6 662,-6 662,-6 847,-6 847,-6 853,-6 859,-12 859,-18 859,-18 859,-66 859,-66 859,-72 853,-78 847,-78"/>
<text text-anchor="middle" x="754.5" y="-63.2" font-family="Helvetica,sans-Serif" font-size="11.00">Data, Integrations and Intelligence</text>
<text text-anchor="middle" x="754.5" y="-51.2" font-family="Helvetica,sans-Serif" font-size="11.00">Eventos</text>
<text text-anchor="middle" x="754.5" y="-39.2" font-family="Helvetica,sans-Serif" font-size="11.00">Analytics</text>
<text text-anchor="middle" x="754.5" y="-27.2" font-family="Helvetica,sans-Serif" font-size="11.00">Bindings por app</text>
<text text-anchor="middle" x="754.5" y="-15.2" font-family="Helvetica,sans-Serif" font-size="11.00">BI/IA</text>
</g>
<!-- platform&#45;&gt;data -->
<g id="edge5" class="edge">
<title>platform&#45;&gt;data</title>
<path fill="none" stroke="#415a77" d="M495,-124C536.36,-113.26 590.24,-98.67 637.5,-84 641.01,-82.91 644.56,-81.79 648.15,-80.63"/>
<polygon fill="#415a77" stroke="#415a77" points="649.3,-83.2 656.04,-78.07 647.57,-77.88 649.3,-83.2"/>
</g>
</g>
</svg>
