<?xml version="1.0" encoding="UTF-8" standalone="no"?>
<!DOCTYPE svg PUBLIC "-//W3C//DTD SVG 1.1//EN"
 "http://www.w3.org/Graphics/SVG/1.1/DTD/svg11.dtd">
<!-- Generated by graphviz version 2.42.4 (0)
 -->
<!-- Title: G Pages: 1 -->
<svg width="508pt" height="431pt"
 viewBox="0.00 0.00 508.20 430.70" xmlns="http://www.w3.org/2000/svg" xmlns:xlink="http://www.w3.org/1999/xlink">
<g id="graph0" class="graph" transform="scale(1 1) rotate(0) translate(21.6 409.1)">
<title>G</title>
<polygon fill="white" stroke="transparent" points="-21.6,21.6 -21.6,-409.1 486.6,-409.1 486.6,21.6 -21.6,21.6"/>
<!-- repo -->
<g id="node1" class="node">
<title>repo</title>
<path fill="#f8fbff" stroke="#17406d" d="M55,-135C55,-135 12,-135 12,-135 6,-135 0,-129 0,-123 0,-123 0,-111 0,-111 0,-105 6,-99 12,-99 12,-99 55,-99 55,-99 61,-99 67,-105 67,-111 67,-111 67,-123 67,-123 67,-129 61,-135 55,-135"/>
<text text-anchor="middle" x="33.5" y="-114.5" font-family="Helvetica,sans-Serif" font-size="10.00">repo&#45;root/</text>
</g>
<!-- apps -->
<g id="node2" class="node">
<title>apps</title>
<path fill="#f8fbff" stroke="#17406d" d="M167.5,-251C167.5,-251 137.5,-251 137.5,-251 131.5,-251 125.5,-245 125.5,-239 125.5,-239 125.5,-227 125.5,-227 125.5,-221 131.5,-215 137.5,-215 137.5,-215 167.5,-215 167.5,-215 173.5,-215 179.5,-221 179.5,-227 179.5,-227 179.5,-239 179.5,-239 179.5,-245 173.5,-251 167.5,-251"/>
<text text-anchor="middle" x="152.5" y="-230.5" font-family="Helvetica,sans-Serif" font-size="10.00">apps/</text>
</g>
<!-- repo&#45;&gt;apps -->
<g id="edge1" class="edge">
<title>repo&#45;&gt;apps</title>
<path fill="none" stroke="#577590" d="M48.85,-135.22C63.36,-153.12 86.89,-180.77 110,-202 112.98,-204.74 116.19,-207.47 119.47,-210.12"/>
<polygon fill="#577590" stroke="#577590" points="118.37,-212.37 125.39,-214.77 121.4,-208.52 118.37,-212.37"/>
</g>
<!-- platform -->
<g id="node6" class="node">
<title>platform</title>
<path fill="#f8fbff" stroke="#17406d" d="M183,-189.5C183,-189.5 122,-189.5 122,-189.5 116,-189.5 110,-183.5 110,-177.5 110,-177.5 110,-134.5 110,-134.5 110,-128.5 116,-122.5 122,-122.5 122,-122.5 183,-122.5 183,-122.5 189,-122.5 195,-128.5 195,-134.5 195,-134.5 195,-177.5 195,-177.5 195,-183.5 189,-189.5 183,-189.5"/>
<text text-anchor="middle" x="152.5" y="-175.5" font-family="Helvetica,sans-Serif" font-size="10.00">platform/</text>
<text text-anchor="middle" x="152.5" y="-164.5" font-family="Helvetica,sans-Serif" font-size="10.00">foundations/</text>
<text text-anchor="middle" x="152.5" y="-153.5" font-family="Helvetica,sans-Serif" font-size="10.00">integrations/</text>
<text text-anchor="middle" x="152.5" y="-142.5" font-family="Helvetica,sans-Serif" font-size="10.00">observability/</text>
<text text-anchor="middle" x="152.5" y="-131.5" font-family="Helvetica,sans-Serif" font-size="10.00">tooling/</text>
</g>
<!-- repo&#45;&gt;platform -->
<g id="edge2" class="edge">
<title>repo&#45;&gt;platform</title>
<path fill="none" stroke="#577590" d="M67.09,-127.86C78.27,-131.59 91.04,-135.85 103.2,-139.9"/>
<polygon fill="#577590" stroke="#577590" points="102.46,-142.24 109.87,-142.12 104.01,-137.59 102.46,-142.24"/>
</g>
<!-- docs -->
<g id="node7" class="node">
<title>docs</title>
<path fill="#f8fbff" stroke="#17406d" d="M167.5,-97C167.5,-97 137.5,-97 137.5,-97 131.5,-97 125.5,-91 125.5,-85 125.5,-85 125.5,-73 125.5,-73 125.5,-67 131.5,-61 137.5,-61 137.5,-61 167.5,-61 167.5,-61 173.5,-61 179.5,-67 179.5,-73 179.5,-73 179.5,-85 179.5,-85 179.5,-91 173.5,-97 167.5,-97"/>
<text text-anchor="middle" x="152.5" y="-76.5" font-family="Helvetica,sans-Serif" font-size="10.00">docs/</text>
</g>
<!-- repo&#45;&gt;docs -->
<g id="edge3" class="edge">
<title>repo&#45;&gt;docs</title>
<path fill="none" stroke="#577590" d="M67.09,-106.41C83.18,-101.19 102.55,-94.9 118.68,-89.66"/>
<polygon fill="#577590" stroke="#577590" points="119.47,-91.98 125.37,-87.49 117.96,-87.32 119.47,-91.98"/>
</g>
<!-- infra -->
<g id="node8" class="node">
<title>infra</title>
<path fill="#f8fbff" stroke="#17406d" d="M167.5,-36C167.5,-36 137.5,-36 137.5,-36 131.5,-36 125.5,-30 125.5,-24 125.5,-24 125.5,-12 125.5,-12 125.5,-6 131.5,0 137.5,0 137.5,0 167.5,0 167.5,0 173.5,0 179.5,-6 179.5,-12 179.5,-12 179.5,-24 179.5,-24 179.5,-30 173.5,-36 167.5,-36"/>
<text text-anchor="middle" x="152.5" y="-15.5" font-family="Helvetica,sans-Serif" font-size="10.00">infra/</text>
</g>
<!-- repo&#45;&gt;infra -->
<g id="edge4" class="edge">
<title>repo&#45;&gt;infra</title>
<path fill="none" stroke="#577590" d="M53.2,-98.79C68.16,-84.51 89.89,-64.37 110,-48 113.02,-45.54 116.21,-43.05 119.44,-40.61"/>
<polygon fill="#577590" stroke="#577590" points="121.11,-42.42 125.26,-36.28 118.18,-38.49 121.11,-42.42"/>
</g>
<!-- mobile -->
<g id="node3" class="node">
<title>mobile</title>
<path fill="#f8fbff" stroke="#17406d" d="M305.5,-387.5C305.5,-387.5 265.5,-387.5 265.5,-387.5 259.5,-387.5 253.5,-381.5 253.5,-375.5 253.5,-375.5 253.5,-288.5 253.5,-288.5 253.5,-282.5 259.5,-276.5 265.5,-276.5 265.5,-276.5 305.5,-276.5 305.5,-276.5 311.5,-276.5 317.5,-282.5 317.5,-288.5 317.5,-288.5 317.5,-375.5 317.5,-375.5 317.5,-381.5 311.5,-387.5 305.5,-387.5"/>
<text text-anchor="middle" x="285.5" y="-373.5" font-family="Helvetica,sans-Serif" font-size="10.00">mobile/</text>
<text text-anchor="middle" x="285.5" y="-362.5" font-family="Helvetica,sans-Serif" font-size="10.00">app/</text>
<text text-anchor="middle" x="285.5" y="-351.5" font-family="Helvetica,sans-Serif" font-size="10.00">branding/</text>
<text text-anchor="middle" x="285.5" y="-340.5" font-family="Helvetica,sans-Serif" font-size="10.00">config/</text>
<text text-anchor="middle" x="285.5" y="-329.5" font-family="Helvetica,sans-Serif" font-size="10.00">core/</text>
<text text-anchor="middle" x="285.5" y="-318.5" font-family="Helvetica,sans-Serif" font-size="10.00">domains/</text>
<text text-anchor="middle" x="285.5" y="-307.5" font-family="Helvetica,sans-Serif" font-size="10.00">features/</text>
<text text-anchor="middle" x="285.5" y="-296.5" font-family="Helvetica,sans-Serif" font-size="10.00">shared/</text>
<text text-anchor="middle" x="285.5" y="-285.5" font-family="Helvetica,sans-Serif" font-size="10.00">flavors/</text>
</g>
<!-- apps&#45;&gt;mobile -->
<g id="edge5" class="edge">
<title>apps&#45;&gt;mobile</title>
<path fill="none" stroke="#577590" d="M177.53,-251.16C197.06,-265.92 224.94,-286.99 247.34,-303.92"/>
<polygon fill="#577590" stroke="#577590" points="246.14,-306.08 253.21,-308.35 249.1,-302.17 246.14,-306.08"/>
</g>
<!-- web -->
<g id="node4" class="node">
<title>web</title>
<path fill="#f8fbff" stroke="#17406d" d="M321,-251C321,-251 250,-251 250,-251 244,-251 238,-245 238,-239 238,-239 238,-227 238,-227 238,-221 244,-215 250,-215 250,-215 321,-215 321,-215 327,-215 333,-221 333,-227 333,-227 333,-239 333,-239 333,-245 327,-251 321,-251"/>
<text text-anchor="middle" x="285.5" y="-230.5" font-family="Helvetica,sans-Serif" font-size="10.00">web&#45;backoffice/</text>
</g>
<!-- apps&#45;&gt;web -->
<g id="edge6" class="edge">
<title>apps&#45;&gt;web</title>
<path fill="none" stroke="#577590" d="M179.69,-233C194.26,-233 212.95,-233 230.5,-233"/>
<polygon fill="#577590" stroke="#577590" points="230.94,-235.45 237.94,-233 230.94,-230.55 230.94,-235.45"/>
</g>
<!-- backend -->
<g id="node5" class="node">
<title>backend</title>
<path fill="#f8fbff" stroke="#17406d" d="M304.5,-190C304.5,-190 266.5,-190 266.5,-190 260.5,-190 254.5,-184 254.5,-178 254.5,-178 254.5,-166 254.5,-166 254.5,-160 260.5,-154 266.5,-154 266.5,-154 304.5,-154 304.5,-154 310.5,-154 316.5,-160 316.5,-166 316.5,-166 316.5,-178 316.5,-178 316.5,-184 310.5,-190 304.5,-190"/>
<text text-anchor="middle" x="285.5" y="-169.5" font-family="Helvetica,sans-Serif" font-size="10.00">backend/</text>
</g>
<!-- apps&#45;&gt;backend -->
<g id="edge7" class="edge">
<title>apps&#45;&gt;backend</title>
<path fill="none" stroke="#577590" d="M179.69,-220.8C199.18,-211.73 226.04,-199.22 247.68,-189.14"/>
<polygon fill="#577590" stroke="#577590" points="248.91,-191.28 254.22,-186.1 246.84,-186.83 248.91,-191.28"/>
</g>
<!-- assets -->
<g id="node9" class="node">
<title>assets</title>
<path fill="#f8fbff" stroke="#17406d" d="M453,-354.5C453,-354.5 388,-354.5 388,-354.5 382,-354.5 376,-348.5 376,-342.5 376,-342.5 376,-321.5 376,-321.5 376,-315.5 382,-309.5 388,-309.5 388,-309.5 453,-309.5 453,-309.5 459,-309.5 465,-315.5 465,-321.5 465,-321.5 465,-342.5 465,-342.5 465,-348.5 459,-354.5 453,-354.5"/>
<text text-anchor="middle" x="420.5" y="-340.5" font-family="Helvetica,sans-Serif" font-size="10.00">assets/brands/</text>
<text text-anchor="middle" x="420.5" y="-329.5" font-family="Helvetica,sans-Serif" font-size="10.00">kaptur/</text>
<text text-anchor="middle" x="420.5" y="-318.5" font-family="Helvetica,sans-Serif" font-size="10.00">cliente&#45;a/</text>
</g>
<!-- mobile&#45;&gt;assets -->
<g id="edge8" class="edge">
<title>mobile&#45;&gt;assets</title>
<path fill="none" stroke="#577590" d="M317.68,-332C332.87,-332 351.51,-332 368.67,-332"/>
<polygon fill="#577590" stroke="#577590" points="368.93,-334.45 375.93,-332 368.93,-329.55 368.93,-334.45"/>
</g>
</g>
</svg>
