<?xml version="1.0" encoding="UTF-8" standalone="no"?>
<!DOCTYPE svg PUBLIC "-//W3C//DTD SVG 1.1//EN"
 "http://www.w3.org/Graphics/SVG/1.1/DTD/svg11.dtd">
<!-- Generated by graphviz version 2.42.4 (0)
 -->
<!-- Title: G Pages: 1 -->
<svg width="818pt" height="110pt"
 viewBox="0.00 0.00 818.20 110.20" xmlns="http://www.w3.org/2000/svg" xmlns:xlink="http://www.w3.org/1999/xlink">
<g id="graph0" class="graph" transform="scale(1 1) rotate(0) translate(21.6 88.6)">
<title>G</title>
<polygon fill="white" stroke="transparent" points="-21.6,21.6 -21.6,-88.6 796.6,-88.6 796.6,21.6 -21.6,21.6"/>
<!-- a -->
<g id="node1" class="node">
<title>a</title>
<path fill="#f3fff9" stroke="#2d6a4f" d="M118,-61.5C118,-61.5 12,-61.5 12,-61.5 6,-61.5 0,-55.5 0,-49.5 0,-49.5 0,-17.5 0,-17.5 0,-11.5 6,-5.5 12,-5.5 12,-5.5 118,-5.5 118,-5.5 124,-5.5 130,-11.5 130,-17.5 130,-17.5 130,-49.5 130,-49.5 130,-55.5 124,-61.5 118,-61.5"/>
<text text-anchor="middle" x="65" y="-47.5" font-family="Helvetica,sans-Serif" font-size="10.00">Fechamento comercial</text>
<text text-anchor="middle" x="65" y="-36.5" font-family="Helvetica,sans-Serif" font-size="10.00">Nome da marca</text>
<text text-anchor="middle" x="65" y="-25.5" font-family="Helvetica,sans-Serif" font-size="10.00">Modo de produto</text>
<text text-anchor="middle" x="65" y="-14.5" font-family="Helvetica,sans-Serif" font-size="10.00">Conta da loja</text>
</g>
<!-- b -->
<g id="node2" class="node">
<title>b</title>
<path fill="#f3fff9" stroke="#2d6a4f" d="M301,-67C301,-67 182,-67 182,-67 176,-67 170,-61 170,-55 170,-55 170,-12 170,-12 170,-6 176,0 182,0 182,0 301,0 301,0 307,0 313,-6 313,-12 313,-12 313,-55 313,-55 313,-61 307,-67 301,-67"/>
<text text-anchor="middle" x="241.5" y="-53" font-family="Helvetica,sans-Serif" font-size="10.00">Cadastro no Brand Admin</text>
<text text-anchor="middle" x="241.5" y="-42" font-family="Helvetica,sans-Serif" font-size="10.00">cores</text>
<text text-anchor="middle" x="241.5" y="-31" font-family="Helvetica,sans-Serif" font-size="10.00">logos</text>
<text text-anchor="middle" x="241.5" y="-20" font-family="Helvetica,sans-Serif" font-size="10.00">copy</text>
<text text-anchor="middle" x="241.5" y="-9" font-family="Helvetica,sans-Serif" font-size="10.00">flags</text>
</g>
<!-- a&#45;&gt;b -->
<g id="edge1" class="edge">
<title>a&#45;&gt;b</title>
<path fill="none" stroke="#40916c" d="M130.48,-33.5C140.99,-33.5 151.98,-33.5 162.77,-33.5"/>
<polygon fill="#40916c" stroke="#40916c" points="162.83,-35.95 169.83,-33.5 162.83,-31.05 162.83,-35.95"/>
</g>
<!-- c -->
<g id="node3" class="node">
<title>c</title>
<path fill="#f3fff9" stroke="#2d6a4f" d="M454,-67C454,-67 365,-67 365,-67 359,-67 353,-61 353,-55 353,-55 353,-12 353,-12 353,-6 359,0 365,0 365,0 454,0 454,0 460,0 466,-6 466,-12 466,-12 466,-55 466,-55 466,-61 460,-67 454,-67"/>
<text text-anchor="middle" x="409.5" y="-53" font-family="Helvetica,sans-Serif" font-size="10.00">Script create_brand</text>
<text text-anchor="middle" x="409.5" y="-42" font-family="Helvetica,sans-Serif" font-size="10.00">flavor</text>
<text text-anchor="middle" x="409.5" y="-31" font-family="Helvetica,sans-Serif" font-size="10.00">ids nativos</text>
<text text-anchor="middle" x="409.5" y="-20" font-family="Helvetica,sans-Serif" font-size="10.00">assets</text>
<text text-anchor="middle" x="409.5" y="-9" font-family="Helvetica,sans-Serif" font-size="10.00">.env</text>
</g>
<!-- b&#45;&gt;c -->
<g id="edge2" class="edge">
<title>b&#45;&gt;c</title>
<path fill="none" stroke="#40916c" d="M313.38,-33.5C324.12,-33.5 335.14,-33.5 345.69,-33.5"/>
<polygon fill="#40916c" stroke="#40916c" points="345.91,-35.95 352.91,-33.5 345.91,-31.05 345.91,-35.95"/>
</g>
<!-- d -->
<g id="node4" class="node">
<title>d</title>
<path fill="#f3fff9" stroke="#2d6a4f" d="M574,-61.5C574,-61.5 518,-61.5 518,-61.5 512,-61.5 506,-55.5 506,-49.5 506,-49.5 506,-17.5 506,-17.5 506,-11.5 512,-5.5 518,-5.5 518,-5.5 574,-5.5 574,-5.5 580,-5.5 586,-11.5 586,-17.5 586,-17.5 586,-49.5 586,-49.5 586,-55.5 580,-61.5 574,-61.5"/>
<text text-anchor="middle" x="546" y="-47.5" font-family="Helvetica,sans-Serif" font-size="10.00">CI gera build</text>
<text text-anchor="middle" x="546" y="-36.5" font-family="Helvetica,sans-Serif" font-size="10.00">AAB / IPA</text>
<text text-anchor="middle" x="546" y="-25.5" font-family="Helvetica,sans-Serif" font-size="10.00">QA</text>
<text text-anchor="middle" x="546" y="-14.5" font-family="Helvetica,sans-Serif" font-size="10.00">checklist</text>
</g>
<!-- c&#45;&gt;d -->
<g id="edge3" class="edge">
<title>c&#45;&gt;d</title>
<path fill="none" stroke="#40916c" d="M466.37,-33.5C477.16,-33.5 488.35,-33.5 498.79,-33.5"/>
<polygon fill="#40916c" stroke="#40916c" points="498.89,-35.95 505.89,-33.5 498.89,-31.05 498.89,-35.95"/>
</g>
<!-- e -->
<g id="node5" class="node">
<title>e</title>
<path fill="#f3fff9" stroke="#2d6a4f" d="M763,-51.5C763,-51.5 638,-51.5 638,-51.5 632,-51.5 626,-45.5 626,-39.5 626,-39.5 626,-27.5 626,-27.5 626,-21.5 632,-15.5 638,-15.5 638,-15.5 763,-15.5 763,-15.5 769,-15.5 775,-21.5 775,-27.5 775,-27.5 775,-39.5 775,-39.5 775,-45.5 769,-51.5 763,-51.5"/>
<text text-anchor="middle" x="700.5" y="-36.5" font-family="Helvetica,sans-Serif" font-size="10.00">Publicacao</text>
<text text-anchor="middle" x="700.5" y="-25.5" font-family="Helvetica,sans-Serif" font-size="10.00">conta propria ou do cliente</text>
</g>
<!-- d&#45;&gt;e -->
<g id="edge4" class="edge">
<title>d&#45;&gt;e</title>
<path fill="none" stroke="#40916c" d="M586.27,-33.5C596.28,-33.5 607.42,-33.5 618.69,-33.5"/>
<polygon fill="#40916c" stroke="#40916c" points="618.71,-35.95 625.71,-33.5 618.71,-31.05 618.71,-35.95"/>
</g>
</g>
</svg>
