<?xml version="1.0" encoding="UTF-8" standalone="no"?>
<!DOCTYPE svg PUBLIC "-//W3C//DTD SVG 1.1//EN"
 "http://www.w3.org/Graphics/SVG/1.1/DTD/svg11.dtd">
<!-- Generated by graphviz version 2.42.4 (0)
 -->
<!-- Title: G Pages: 1 -->
<svg width="582pt" height="99pt"
 viewBox="0.00 0.00 582.20 99.20" xmlns="http://www.w3.org/2000/svg" xmlns:xlink="http://www.w3.org/1999/xlink">
<g id="graph0" class="graph" transform="scale(1 1) rotate(0) translate(21.6 77.6)">
<title>G</title>
<polygon fill="white" stroke="transparent" points="-21.6,21.6 -21.6,-77.6 560.6,-77.6 560.6,21.6 -21.6,21.6"/>
<!-- f1 -->
<g id="node1" class="node">
<title>f1</title>
<path fill="#fffaf0" stroke="#8a5a00" d="M78,-56C78,-56 12,-56 12,-56 6,-56 0,-50 0,-44 0,-44 0,-12 0,-12 0,-6 6,0 12,0 12,0 78,0 78,0 84,0 90,-6 90,-12 90,-12 90,-44 90,-44 90,-50 84,-56 78,-56"/>
<text text-anchor="middle" x="45" y="-42" font-family="Helvetica,sans-Serif" font-size="10.00">Fase 1</text>
<text text-anchor="middle" x="45" y="-31" font-family="Helvetica,sans-Serif" font-size="10.00">BrandManifest</text>
<text text-anchor="middle" x="45" y="-20" font-family="Helvetica,sans-Serif" font-size="10.00">ProductConfig</text>
<text text-anchor="middle" x="45" y="-9" font-family="Helvetica,sans-Serif" font-size="10.00">Flavors</text>
</g>
<!-- f2 -->
<g id="node2" class="node">
<title>f2</title>
<path fill="#fffaf0" stroke="#8a5a00" d="M228,-50.5C228,-50.5 142,-50.5 142,-50.5 136,-50.5 130,-44.5 130,-38.5 130,-38.5 130,-17.5 130,-17.5 130,-11.5 136,-5.5 142,-5.5 142,-5.5 228,-5.5 228,-5.5 234,-5.5 240,-11.5 240,-17.5 240,-17.5 240,-38.5 240,-38.5 240,-44.5 234,-50.5 228,-50.5"/>
<text text-anchor="middle" x="185" y="-36.5" font-family="Helvetica,sans-Serif" font-size="10.00">Fase 2</text>
<text text-anchor="middle" x="185" y="-25.5" font-family="Helvetica,sans-Serif" font-size="10.00">Docs + Diagramas</text>
<text text-anchor="middle" x="185" y="-14.5" font-family="Helvetica,sans-Serif" font-size="10.00">Linguagem ativa</text>
</g>
<!-- f1&#45;&gt;f2 -->
<g id="edge1" class="edge">
<title>f1&#45;&gt;f2</title>
<path fill="none" stroke="#b08900" d="M90.04,-28C100.4,-28 111.62,-28 122.58,-28"/>
<polygon fill="#b08900" stroke="#b08900" points="122.73,-30.45 129.73,-28 122.73,-25.55 122.73,-30.45"/>
</g>
<!-- f3 -->
<g id="node3" class="node">
<title>f3</title>
<path fill="#fffaf0" stroke="#8a5a00" d="M382,-56C382,-56 292,-56 292,-56 286,-56 280,-50 280,-44 280,-44 280,-12 280,-12 280,-6 286,0 292,0 292,0 382,0 382,0 388,0 394,-6 394,-12 394,-12 394,-44 394,-44 394,-50 388,-56 382,-56"/>
<text text-anchor="middle" x="337" y="-42" font-family="Helvetica,sans-Serif" font-size="10.00">Fase 3</text>
<text text-anchor="middle" x="337" y="-31" font-family="Helvetica,sans-Serif" font-size="10.00">Kaptur UX</text>
<text text-anchor="middle" x="337" y="-20" font-family="Helvetica,sans-Serif" font-size="10.00">Home redesenhada</text>
<text text-anchor="middle" x="337" y="-9" font-family="Helvetica,sans-Serif" font-size="10.00">Swipe/geofence</text>
</g>
<!-- f2&#45;&gt;f3 -->
<g id="edge2" class="edge">
<title>f2&#45;&gt;f3</title>
<path fill="none" stroke="#b08900" d="M240.15,-28C250.75,-28 261.96,-28 272.82,-28"/>
<polygon fill="#b08900" stroke="#b08900" points="272.91,-30.45 279.91,-28 272.91,-25.55 272.91,-30.45"/>
</g>
<!-- f4 -->
<g id="node4" class="node">
<title>f4</title>
<path fill="#fffaf0" stroke="#8a5a00" d="M527,-56C527,-56 446,-56 446,-56 440,-56 434,-50 434,-44 434,-44 434,-12 434,-12 434,-6 440,0 446,0 446,0 527,0 527,0 533,0 539,-6 539,-12 539,-12 539,-44 539,-44 539,-50 533,-56 527,-56"/>
<text text-anchor="middle" x="486.5" y="-42" font-family="Helvetica,sans-Serif" font-size="10.00">Fase 4</text>
<text text-anchor="middle" x="486.5" y="-31" font-family="Helvetica,sans-Serif" font-size="10.00">Factory de cliente</text>
<text text-anchor="middle" x="486.5" y="-20" font-family="Helvetica,sans-Serif" font-size="10.00">CI/CD</text>
<text text-anchor="middle" x="486.5" y="-9" font-family="Helvetica,sans-Serif" font-size="10.00">Release por app</text>
</g>
<!-- f3&#45;&gt;f4 -->
<g id="edge3" class="edge">
<title>f3&#45;&gt;f4</title>
<path fill="none" stroke="#b08900" d="M394.18,-28C404.77,-28 415.86,-28 426.53,-28"/>
<polygon fill="#b08900" stroke="#b08900" points="426.83,-30.45 433.83,-28 426.83,-25.55 426.83,-30.45"/>
</g>
</g>
</svg>
